<?xml version="1.0" encoding="UTF-8" standalone="no"?>
<!DOCTYPE svg PUBLIC "-//W3C//DTD SVG 1.1//EN" "http://www.w3.org/Graphics/SVG/1.1/DTD/svg11.dtd">
<svg width="100%" height="100%" viewBox="0 0 1280 1280" version="1.1" xmlns="http://www.w3.org/2000/svg" xmlns:xlink="http://www.w3.org/1999/xlink" xml:space="preserve" xmlns:serif="http://www.serif.com/" style="fill-rule:evenodd;clip-rule:evenodd;stroke-linecap:round;stroke-linejoin:round;stroke-miterlimit:1.5;">
    <circle cx="640" cy="640" r="640" style="fill:white;"/>
    <path d="M640,0C993.226,0 1280,286.774 1280,640C1280,993.226 993.226,1280 640,1280C286.774,1280 0,993.226 0,640C0,286.774 286.774,0 640,0ZM640,60C960.111,60 1220,319.889 1220,640C1220,960.111 960.111,1220 640,1220C319.889,1220 60,960.111 60,640C60,319.889 319.889,60 640,60Z" style="fill:rgb(0,78,175);"/>
    <g id="TRYPTYK" transform="matrix(3.47292,1.95992e-33,-1.95992e-33,3.47292,-1670.18,-833.093)">
        <clipPath id="_clip1">
            <path d="M849.482,239.883L849.482,608.449L480.916,608.449L665.199,608.449C659.983,608.445 654.767,608.232 649.569,607.794C640.831,607.059 632.146,605.701 623.602,603.727C613.674,601.432 603.939,598.306 594.531,594.392C585.256,590.533 576.3,585.909 567.78,580.588C556.037,573.255 545.126,564.598 535.308,554.838C525.36,544.949 516.538,533.931 509.072,522.056C503.726,513.553 499.076,504.613 495.189,495.351C491.248,485.959 488.092,476.237 485.768,466.319C483.768,457.786 482.383,449.11 481.621,440.379C481.159,435.087 480.929,429.776 480.916,424.464L480.916,424.166C480.916,322.457 563.49,239.883 665.199,239.883C766.908,239.883 849.482,322.457 849.482,424.166C849.482,525.874 766.908,608.449 665.199,608.449L849.482,608.449L849.482,239.883ZM480.916,239.883L480.916,608.449L480.916,239.883Z"/>
        </clipPath>
        <g clip-path="url(#_clip1)">
            <g id="fat" transform="matrix(0.69596,0,0,0.69596,663.463,22.9281)">
                <g id="spirit.sm.l" transform="matrix(0.605411,0,0,0.710342,-295.492,385.353)">
                    <g transform="matrix(1.00865,0,0,1.00865,-6.24142,-4.43202)">
                        <path d="M707.473,358.92C702.673,348.345 700,336.603 700,324.242C700,282.635 730.288,248.045 770,241.338M630,428.525C630,389.89 661.366,358.525 700,358.525C702.527,358.525 705.022,358.659 707.48,358.92" style="fill:rgb(0,78,175);stroke:rgb(0,78,175);stroke-width:47.44px;"/>
                    </g>
                    <path d="M833.476,357.591C838.348,346.897 841.021,335.123 841.021,322.613C841.021,280.646 810.471,245.758 770.415,238.993M911.626,427.797C911.626,388.829 879.989,357.192 841.021,357.192C838.472,357.192 835.955,357.327 833.476,357.591" style="fill:rgb(0,78,175);stroke:rgb(0,78,175);stroke-width:47.85px;"/>
                    <g transform="matrix(2.16849,0,0,2.16849,502.19,72.486)">
                        <path d="M58.573,163.852L58.573,265.375M188.812,163.852L188.812,265.375" style="fill:rgb(0,78,175);stroke:rgb(0,78,175);stroke-width:22.06px;"/>
                    </g>
                </g>
                <g id="window" transform="matrix(0.581567,0,0,0.571665,-276.881,428.339)">
                    <g transform="matrix(1,0,0,0.922055,-2.44512,61.2872)">
                        <path d="M625.445,786.292L625.445,423.837" style="fill:none;stroke:rgb(0,78,175);stroke-width:56.9px;stroke-linecap:square;"/>
                    </g>
                    <g transform="matrix(1,0,0,0.925508,291.555,59.8238)">
                        <path d="M625.445,786.292L625.445,423.837" style="fill:none;stroke:rgb(0,78,175);stroke-width:56.8px;stroke-linecap:square;"/>
                    </g>
                    <path d="M623,452.088C623,347.99 683.074,257.812 770.415,214.361M770.415,214.776C857.307,258.385 917,348.32 917,452.088" style="fill:rgb(0,78,175);stroke:rgb(0,78,175);stroke-width:54.76px;"/>
                </g>
                <path d="M120.787,585.618C129.111,582.553 137.435,586.149 137.619,605.598L137.628,605.855L137.628,613.96C137.628,616.562 138.221,627.252 137.252,632.707C136.25,638.342 133.658,642.133 131.557,644.203C128.877,646.844 125.006,649.061 119.96,650.04C118.462,650.33 115.865,650.565 113.565,650.73C108.524,656.821 102.33,656.847 98.827,656.44C94.624,655.952 90.169,654.168 86.749,649.061C85.987,647.924 83.847,645.025 83.847,639.225C83.847,633.674 85.4,629.395 88.099,626.08C88.595,624.934 89.074,623.944 89.447,623.381C90.699,621.496 95.769,612.155 99.485,608.412C100.949,606.937 102.461,605.787 103.964,604.903C104.342,586.062 112.565,582.589 120.787,585.618Z" style="fill:rgb(0,78,175);stroke:rgb(0,78,175);stroke-width:0.41px;stroke-linecap:butt;stroke-miterlimit:2;"/>
                <path d="M230.845,650.172C226.798,649.291 220.316,647.902 216.82,646.743C212,645.144 209.047,642.695 207.795,641.379C205.598,639.07 203.005,634.847 202.302,628.672C201.599,622.503 203.154,610.439 203.154,607.204C203.154,597.909 210.7,590.362 219.995,590.362C229.29,590.362 236.837,597.909 236.837,607.204L236.81,608.104C238.798,610.975 244.744,617.007 248.299,620.524C250.587,621.552 252.843,622.723 254.259,623.69C257.685,626.029 259.503,628.702 260.373,630.318C264.219,637.457 262.701,643.543 259.239,648.366C257.469,650.83 253.868,655.312 245.435,655.542C242.352,655.626 236.913,654.631 231.135,650.391L230.845,650.172Z" style="fill:rgb(0,78,175);stroke:rgb(0,78,175);stroke-width:0.41px;stroke-linecap:butt;stroke-miterlimit:2;"/>
            </g>
            <g id="fat1" serif:id="fat" transform="matrix(0.69596,0,0,0.69596,544.794,22.9281)">
                <g id="spirit.sm.l1" serif:id="spirit.sm.l" transform="matrix(0.605411,0,0,0.710342,-295.492,385.353)">
                    <g transform="matrix(1.00865,0,0,1.00865,-6.24142,-4.43202)">
                        <path d="M707.473,358.92C702.673,348.345 700,336.603 700,324.242C700,282.635 730.288,248.045 770,241.338M630,428.525C630,389.89 661.366,358.525 700,358.525C702.527,358.525 705.022,358.659 707.48,358.92" style="fill:rgb(0,78,175);stroke:rgb(0,78,175);stroke-width:47.44px;"/>
                    </g>
                    <path d="M833.476,357.591C838.348,346.897 841.021,335.123 841.021,322.613C841.021,280.646 810.471,245.758 770.415,238.993M911.626,427.797C911.626,388.829 879.989,357.192 841.021,357.192C838.472,357.192 835.955,357.327 833.476,357.591" style="fill:rgb(0,78,175);stroke:rgb(0,78,175);stroke-width:47.85px;"/>
                    <g transform="matrix(2.16849,0,0,2.16849,502.19,72.486)">
                        <path d="M58.573,163.852L58.573,265.375M188.812,163.852L188.812,265.375" style="fill:rgb(0,78,175);stroke:rgb(0,78,175);stroke-width:22.06px;"/>
                    </g>
                </g>
                <g id="window1" serif:id="window" transform="matrix(0.581567,0,0,0.571665,-276.881,428.339)">
                    <g transform="matrix(1,0,0,0.922055,-2.44512,61.2872)">
                        <path d="M625.445,786.292L625.445,423.837" style="fill:none;stroke:rgb(0,78,175);stroke-width:56.9px;stroke-linecap:square;"/>
                    </g>
                    <g transform="matrix(1,0,0,0.925508,291.555,59.8238)">
                        <path d="M625.445,786.292L625.445,423.837" style="fill:none;stroke:rgb(0,78,175);stroke-width:56.8px;stroke-linecap:square;"/>
                    </g>
                    <path d="M623,452.088C623,347.99 683.074,257.812 770.415,214.361M770.415,214.776C857.307,258.385 917,348.32 917,452.088" style="fill:rgb(0,78,175);stroke:rgb(0,78,175);stroke-width:54.76px;"/>
                </g>
                <path d="M103.964,604.903C104.342,586.062 112.565,582.589 120.787,585.618C129.111,582.553 137.435,586.149 137.619,605.598L137.628,605.855L137.628,613.96C137.628,616.562 138.221,627.252 137.252,632.707C136.25,638.342 133.658,642.133 131.557,644.203C128.877,646.844 125.006,649.061 119.96,650.04C118.462,650.33 115.865,650.565 113.565,650.73C108.524,656.821 102.33,656.847 98.827,656.44C94.624,655.952 90.169,654.168 86.749,649.061C85.987,647.924 83.847,645.025 83.847,639.225C83.847,633.674 85.4,629.395 88.099,626.08C88.595,624.934 89.074,623.944 89.447,623.381C90.699,621.496 95.769,612.155 99.485,608.412C100.949,606.937 102.461,605.787 103.964,604.903Z" style="fill:rgb(0,78,175);stroke:rgb(0,78,175);stroke-width:0.41px;stroke-linecap:butt;stroke-miterlimit:2;"/>
                <path d="M230.845,650.172C226.798,649.291 220.316,647.902 216.82,646.743C212,645.144 209.047,642.695 207.795,641.379C205.598,639.07 203.005,634.847 202.302,628.672C201.599,622.503 203.154,610.439 203.154,607.204C203.154,597.909 210.7,590.362 219.995,590.362C229.29,590.362 236.837,597.909 236.837,607.204L236.81,608.104C238.798,610.975 244.744,617.007 248.299,620.524C250.587,621.552 252.843,622.723 254.259,623.69C257.685,626.029 259.503,628.702 260.373,630.318C264.219,637.457 262.701,643.543 259.239,648.366C257.469,650.83 253.868,655.312 245.435,655.542C242.352,655.626 236.913,654.631 231.135,650.391L230.845,650.172Z" style="fill:rgb(0,78,175);stroke:rgb(0,78,175);stroke-width:0.41px;stroke-linecap:butt;stroke-miterlimit:2;"/>
            </g>
            <g id="fat2" serif:id="fat" transform="matrix(0.69596,0,0,0.69596,425.798,22.9281)">
                <g id="spirit.sm.l2" serif:id="spirit.sm.l" transform="matrix(0.605411,0,0,0.710342,-295.492,385.353)">
                    <g transform="matrix(1.00865,0,0,1.00865,-6.24142,-4.43202)">
                        <path d="M707.473,358.92C702.673,348.345 700,336.603 700,324.242C700,282.635 730.288,248.045 770,241.338M630,428.525C630,389.89 661.366,358.525 700,358.525C702.527,358.525 705.022,358.659 707.48,358.92" style="fill:rgb(0,78,175);stroke:rgb(0,78,175);stroke-width:47.44px;"/>
                    </g>
                    <path d="M833.476,357.591C838.348,346.897 841.021,335.123 841.021,322.613C841.021,280.646 810.471,245.758 770.415,238.993M911.626,427.797C911.626,388.829 879.989,357.192 841.021,357.192C838.472,357.192 835.955,357.327 833.476,357.591" style="fill:rgb(0,78,175);stroke:rgb(0,78,175);stroke-width:47.85px;"/>
                    <g transform="matrix(2.16849,0,0,2.16849,502.19,72.486)">
                        <path d="M58.573,163.852L58.573,265.375M188.812,163.852L188.812,265.375" style="fill:rgb(0,78,175);stroke:rgb(0,78,175);stroke-width:22.06px;"/>
                    </g>
                </g>
                <g id="window2" serif:id="window" transform="matrix(0.581567,0,0,0.571665,-276.881,428.339)">
                    <g transform="matrix(1,0,0,0.922055,-2.44512,61.2872)">
                        <path d="M625.445,786.292L625.445,423.837" style="fill:none;stroke:rgb(0,78,175);stroke-width:56.9px;stroke-linecap:square;"/>
                    </g>
                    <g transform="matrix(1,0,0,0.925508,291.555,59.8238)">
                        <path d="M625.445,786.292L625.445,423.837" style="fill:none;stroke:rgb(0,78,175);stroke-width:56.8px;stroke-linecap:square;"/>
                    </g>
                    <path d="M623,452.088C623,347.99 683.074,257.812 770.415,214.361M770.415,214.776C857.307,258.385 917,348.32 917,452.088" style="fill:rgb(0,78,175);stroke:rgb(0,78,175);stroke-width:54.76px;"/>
                </g>
                <path d="M103.964,604.903C104.342,586.062 112.565,582.589 120.787,585.618C129.111,582.553 137.435,586.149 137.619,605.598L137.628,605.855L137.628,613.96C137.628,616.562 138.221,627.252 137.252,632.707C136.25,638.342 133.658,642.133 131.557,644.203C128.877,646.844 125.006,649.061 119.96,650.04C118.462,650.33 115.865,650.565 113.565,650.73C108.524,656.821 102.33,656.847 98.827,656.44C94.624,655.952 90.169,654.168 86.749,649.061C85.987,647.924 83.847,645.025 83.847,639.225C83.847,633.674 85.4,629.395 88.099,626.08C88.595,624.934 89.074,623.944 89.447,623.381C90.699,621.496 95.769,612.155 99.485,608.412C100.949,606.937 102.461,605.787 103.964,604.903Z" style="fill:rgb(0,78,175);stroke:rgb(0,78,175);stroke-width:0.41px;stroke-linecap:butt;stroke-miterlimit:2;"/>
                <path d="M230.845,650.172C226.798,649.291 220.316,647.902 216.82,646.743C212,645.144 209.047,642.695 207.795,641.379C205.598,639.07 203.005,634.847 202.302,628.672C201.599,622.503 203.154,610.439 203.154,607.204C203.154,597.909 210.7,590.362 219.995,590.362C229.29,590.362 236.837,597.909 236.837,607.204L236.81,608.104C238.798,610.975 244.744,617.007 248.299,620.524C250.587,621.552 252.843,622.723 254.259,623.69C257.685,626.029 259.503,628.702 260.373,630.318C264.219,637.457 262.701,643.543 259.239,648.366C257.469,650.83 253.868,655.312 245.435,655.542C242.352,655.626 236.913,654.631 231.135,650.391L230.845,650.172Z" style="fill:rgb(0,78,175);stroke:rgb(0,78,175);stroke-width:0.41px;stroke-linecap:butt;stroke-miterlimit:2;"/>
            </g>
        </g>
    </g>
</svg>
