<?xml version="1.0" standalone="no"?>
<!DOCTYPE svg PUBLIC "-//W3C//DTD SVG 20010904//EN"
 "http://www.w3.org/TR/2001/REC-SVG-20010904/DTD/svg10.dtd">
<svg version="1.0" xmlns="http://www.w3.org/2000/svg"
 width="1024.000000pt" height="1024.000000pt" viewBox="0 0 1024.000000 1024.000000"
 preserveAspectRatio="xMidYMid meet">
<metadata>
Created by potrace 1.11, written by Peter Selinger 2001-2013
</metadata>
<g transform="translate(0.000000,1024.000000) scale(0.100000,-0.100000)"
fill="#000000" stroke="none">
<path d="M4849 10236 c-2 -2 -51 -6 -109 -10 -113 -7 -139 -10 -270 -26 -110
-14 -140 -19 -170 -25 -13 -2 -65 -12 -115 -20 -330 -56 -818 -206 -1130 -348
-332 -150 -647 -331 -910 -521 -113 -81 -276 -206 -285 -217 -3 -3 -52 -46
-110 -96 -155 -133 -343 -322 -507 -509 -65 -73 -243 -300 -272 -344 -9 -14
-34 -50 -56 -80 -182 -246 -425 -698 -559 -1043 -133 -341 -247 -753 -291
-1052 -3 -22 -7 -53 -10 -70 -3 -16 -7 -46 -9 -65 -9 -73 -17 -136 -21 -165
-14 -107 -20 -276 -20 -520 0 -379 15 -567 71 -895 128 -744 442 -1484 891
-2103 727 -1001 1774 -1705 2958 -1987 135 -32 410 -84 504 -94 29 -4 83 -10
120 -15 36 -5 73 -9 81 -9 8 0 60 -4 115 -9 126 -10 627 -11 760 0 144 11 347
36 440 53 44 8 96 17 115 20 19 3 96 19 170 35 947 208 1830 695 2519 1389 96
97 289 310 341 376 8 11 40 51 71 89 284 358 564 850 737 1301 104 270 216
655 247 854 4 25 9 54 11 65 60 317 79 538 79 925 0 368 -18 596 -70 880 -28
151 -43 221 -76 354 -21 88 -43 174 -49 190 -98 312 -150 452 -245 666 -226
506 -549 993 -930 1399 -131 140 -289 293 -399 386 -32 28 -68 58 -80 69 -36
32 -257 199 -336 255 -474 333 -1061 606 -1610 749 -140 37 -322 78 -410 92
-36 5 -76 12 -90 15 -14 3 -43 8 -65 11 -22 3 -69 9 -105 14 -36 5 -99 12
-140 15 -41 4 -88 9 -105 11 -37 6 -670 15 -676 10z"/>
</g>
</svg>
